<svg xmlns="http://www.w3.org/2000/svg" xmlns:xlink="http://www.w3.org/1999/xlink" width="500" zoomAndPan="magnify" viewBox="0 0 375 374.999991" height="500" preserveAspectRatio="xMidYMid meet" version="1.0"><defs><clipPath id="12b1542ce5"><path d="M 21 21 L 65 21 L 65 65 L 21 65 Z M 21 21 " clip-rule="nonzero"/></clipPath><clipPath id="24f59cf449"><path d="M 0 43.089844 L 43.097656 -0.00390625 L 86.195312 43.089844 L 43.097656 86.1875 Z M 0 43.089844 " clip-rule="nonzero"/></clipPath><clipPath id="fea992ad02"><path d="M 21.550781 21.542969 L 43.097656 29.378906 L 64.644531 21.542969 L 56.8125 43.089844 L 64.644531 64.640625 L 43.097656 56.804688 L 21.550781 64.640625 L 29.382812 43.089844 L 21.550781 21.542969 " clip-rule="nonzero"/></clipPath><clipPath id="266b092e4d"><path d="M 114 21 L 158 21 L 158 65 L 114 65 Z M 114 21 " clip-rule="nonzero"/></clipPath><clipPath id="af6975bbf6"><path d="M 92.675781 43.089844 L 135.769531 -0.00390625 L 178.867188 43.089844 L 135.769531 86.1875 Z M 92.675781 43.089844 " clip-rule="nonzero"/></clipPath><clipPath id="02d143640f"><path d="M 114.222656 21.542969 L 135.769531 29.378906 L 157.320312 21.542969 L 149.484375 43.089844 L 157.320312 64.640625 L 135.769531 56.804688 L 114.222656 64.640625 L 122.058594 43.089844 L 114.222656 21.542969 " clip-rule="nonzero"/></clipPath><clipPath id="7c653b51b8"><path d="M 23 107 L 67 107 L 67 151 L 23 151 Z M 23 107 " clip-rule="nonzero"/></clipPath><clipPath id="afbb11e57c"><path d="M 1.539062 129.28125 L 44.632812 86.1875 L 87.730469 129.28125 L 44.632812 172.378906 Z M 1.539062 129.28125 " clip-rule="nonzero"/></clipPath><clipPath id="f64662e61d"><path d="M 23.085938 107.734375 L 44.632812 115.570312 L 66.183594 107.734375 L 58.347656 129.28125 L 66.183594 150.832031 L 44.632812 142.996094 L 23.085938 150.832031 L 30.921875 129.28125 L 23.085938 107.734375 " clip-rule="nonzero"/></clipPath><clipPath id="b3d58d7948"><path d="M 157 165 L 201 165 L 201 210 L 157 210 Z M 157 165 " clip-rule="nonzero"/></clipPath><clipPath id="711a2ba26b"><path d="M 135.769531 187.496094 L 178.867188 144.398438 L 221.960938 187.496094 L 178.867188 230.589844 Z M 135.769531 187.496094 " clip-rule="nonzero"/></clipPath><clipPath id="d95f06bb4b"><path d="M 157.320312 165.949219 L 178.867188 173.78125 L 200.414062 165.949219 L 192.578125 187.496094 L 200.414062 209.042969 L 178.867188 201.207031 L 157.320312 209.042969 L 165.152344 187.496094 L 157.320312 165.949219 " clip-rule="nonzero"/></clipPath></defs><g clip-path="url(#12b1542ce5)"><g clip-path="url(#24f59cf449)"><g clip-path="url(#fea992ad02)"><path fill="#b15e41" d="M 0 43.089844 L 43.097656 -0.00390625 L 86.195312 43.089844 L 43.097656 86.1875 Z M 0 43.089844 " fill-opacity="1" fill-rule="nonzero"/></g></g></g><g clip-path="url(#266b092e4d)"><g clip-path="url(#af6975bbf6)"><g clip-path="url(#02d143640f)"><path fill="#b8c3c3" d="M 92.675781 43.089844 L 135.769531 -0.00390625 L 178.867188 43.089844 L 135.769531 86.1875 Z M 92.675781 43.089844 " fill-opacity="1" fill-rule="nonzero"/></g></g></g><g clip-path="url(#7c653b51b8)"><g clip-path="url(#afbb11e57c)"><g clip-path="url(#f64662e61d)"><path fill="#b8c3c3" d="M 1.539062 129.28125 L 44.632812 86.1875 L 87.730469 129.28125 L 44.632812 172.378906 Z M 1.539062 129.28125 " fill-opacity="1" fill-rule="nonzero"/></g></g></g><g clip-path="url(#b3d58d7948)"><g clip-path="url(#711a2ba26b)"><g clip-path="url(#d95f06bb4b)"><path fill="#b15e41" d="M 135.769531 187.496094 L 178.867188 144.398438 L 221.960938 187.496094 L 178.867188 230.589844 Z M 135.769531 187.496094 " fill-opacity="1" fill-rule="nonzero"/></g></g></g></svg>