<svg xmlns="http://www.w3.org/2000/svg" xmlns:xlink="http://www.w3.org/1999/xlink" width="500" zoomAndPan="magnify" viewBox="0 0 375 374.999991" height="500" preserveAspectRatio="xMidYMid meet" version="1.0"><defs><clipPath id="b8858d35e9"><path d="M 21 310 L 65 310 L 65 354 L 21 354 Z M 21 310 " clip-rule="nonzero"/></clipPath><clipPath id="4a551c0a8a"><path d="M 43.089844 374.988281 L -0.00390625 331.894531 L 43.089844 288.796875 L 86.1875 331.894531 Z M 43.089844 374.988281 " clip-rule="nonzero"/></clipPath><clipPath id="556ef4bf9d"><path d="M 21.542969 353.441406 L 29.378906 331.894531 L 21.542969 310.34375 L 43.089844 318.179688 L 64.640625 310.34375 L 56.804688 331.894531 L 64.640625 353.441406 L 43.089844 345.605469 L 21.542969 353.441406 " clip-rule="nonzero"/></clipPath><clipPath id="957ca2f138"><path d="M 21 217 L 65 217 L 65 261 L 21 261 Z M 21 217 " clip-rule="nonzero"/></clipPath><clipPath id="2483162cd9"><path d="M 43.089844 282.316406 L -0.00390625 239.21875 L 43.089844 196.125 L 86.1875 239.21875 Z M 43.089844 282.316406 " clip-rule="nonzero"/></clipPath><clipPath id="8115b1107a"><path d="M 21.542969 260.769531 L 29.378906 239.21875 L 21.542969 217.671875 L 43.089844 225.507812 L 64.640625 217.671875 L 56.804688 239.21875 L 64.640625 260.769531 L 43.089844 252.933594 L 21.542969 260.769531 " clip-rule="nonzero"/></clipPath><clipPath id="4f85fa7247"><path d="M 107 308 L 151 308 L 151 352 L 107 352 Z M 107 308 " clip-rule="nonzero"/></clipPath><clipPath id="52d1b6dbdf"><path d="M 129.28125 373.453125 L 86.1875 330.355469 L 129.28125 287.261719 L 172.378906 330.355469 Z M 129.28125 373.453125 " clip-rule="nonzero"/></clipPath><clipPath id="05ae40b7bf"><path d="M 107.734375 351.90625 L 115.570312 330.355469 L 107.734375 308.808594 L 129.28125 316.644531 L 150.832031 308.808594 L 142.996094 330.355469 L 150.832031 351.90625 L 129.28125 344.070312 L 107.734375 351.90625 " clip-rule="nonzero"/></clipPath><clipPath id="29d17d1db4"><path d="M 165 174 L 210 174 L 210 218 L 165 218 Z M 165 174 " clip-rule="nonzero"/></clipPath><clipPath id="722e10621e"><path d="M 187.496094 239.21875 L 144.398438 196.125 L 187.496094 153.027344 L 230.589844 196.125 Z M 187.496094 239.21875 " clip-rule="nonzero"/></clipPath><clipPath id="4616639f9a"><path d="M 165.949219 217.671875 L 173.78125 196.125 L 165.949219 174.578125 L 187.496094 182.410156 L 209.042969 174.578125 L 201.207031 196.125 L 209.042969 217.671875 L 187.496094 209.835938 L 165.949219 217.671875 " clip-rule="nonzero"/></clipPath></defs><g clip-path="url(#b8858d35e9)"><g clip-path="url(#4a551c0a8a)"><g clip-path="url(#556ef4bf9d)"><path fill="#f2f7f8" d="M 43.089844 374.988281 L -0.00390625 331.894531 L 43.089844 288.796875 L 86.1875 331.894531 Z M 43.089844 374.988281 " fill-opacity="1" fill-rule="nonzero"/></g></g></g><g clip-path="url(#957ca2f138)"><g clip-path="url(#2483162cd9)"><g clip-path="url(#8115b1107a)"><path fill="#3a5d59" d="M 43.089844 282.316406 L -0.00390625 239.21875 L 43.089844 196.125 L 86.1875 239.21875 Z M 43.089844 282.316406 " fill-opacity="1" fill-rule="nonzero"/></g></g></g><g clip-path="url(#4f85fa7247)"><g clip-path="url(#52d1b6dbdf)"><g clip-path="url(#05ae40b7bf)"><path fill="#3a5d59" d="M 129.28125 373.453125 L 86.1875 330.355469 L 129.28125 287.261719 L 172.378906 330.355469 Z M 129.28125 373.453125 " fill-opacity="1" fill-rule="nonzero"/></g></g></g><g clip-path="url(#29d17d1db4)"><g clip-path="url(#722e10621e)"><g clip-path="url(#4616639f9a)"><path fill="#f2f7f8" d="M 187.496094 239.21875 L 144.398438 196.125 L 187.496094 153.027344 L 230.589844 196.125 Z M 187.496094 239.21875 " fill-opacity="1" fill-rule="nonzero"/></g></g></g></svg>