<svg xmlns="http://www.w3.org/2000/svg" xmlns:xlink="http://www.w3.org/1999/xlink" width="500" zoomAndPan="magnify" viewBox="0 0 375 374.999991" height="500" preserveAspectRatio="xMidYMid meet" version="1.0"><defs><clipPath id="e3ab2038b1"><path d="M 21 310 L 65 310 L 65 354 L 21 354 Z M 21 310 " clip-rule="nonzero"/></clipPath><clipPath id="44b517faeb"><path d="M 43.089844 374.988281 L -0.00390625 331.894531 L 43.089844 288.796875 L 86.1875 331.894531 Z M 43.089844 374.988281 " clip-rule="nonzero"/></clipPath><clipPath id="03f590a47d"><path d="M 21.542969 353.441406 L 29.378906 331.894531 L 21.542969 310.34375 L 43.089844 318.179688 L 64.640625 310.34375 L 56.804688 331.894531 L 64.640625 353.441406 L 43.089844 345.605469 L 21.542969 353.441406 " clip-rule="nonzero"/></clipPath><clipPath id="32bf97dd31"><path d="M 21 217 L 65 217 L 65 261 L 21 261 Z M 21 217 " clip-rule="nonzero"/></clipPath><clipPath id="366bd436a6"><path d="M 43.089844 282.316406 L -0.00390625 239.21875 L 43.089844 196.125 L 86.1875 239.21875 Z M 43.089844 282.316406 " clip-rule="nonzero"/></clipPath><clipPath id="b931579e53"><path d="M 21.542969 260.769531 L 29.378906 239.21875 L 21.542969 217.671875 L 43.089844 225.507812 L 64.640625 217.671875 L 56.804688 239.21875 L 64.640625 260.769531 L 43.089844 252.933594 L 21.542969 260.769531 " clip-rule="nonzero"/></clipPath><clipPath id="a57e293eb9"><path d="M 107 308 L 151 308 L 151 352 L 107 352 Z M 107 308 " clip-rule="nonzero"/></clipPath><clipPath id="23115d15f7"><path d="M 129.28125 373.453125 L 86.1875 330.355469 L 129.28125 287.261719 L 172.378906 330.355469 Z M 129.28125 373.453125 " clip-rule="nonzero"/></clipPath><clipPath id="40120b6b73"><path d="M 107.734375 351.90625 L 115.570312 330.355469 L 107.734375 308.808594 L 129.28125 316.644531 L 150.832031 308.808594 L 142.996094 330.355469 L 150.832031 351.90625 L 129.28125 344.070312 L 107.734375 351.90625 " clip-rule="nonzero"/></clipPath><clipPath id="13f25f2561"><path d="M 165 174 L 210 174 L 210 218 L 165 218 Z M 165 174 " clip-rule="nonzero"/></clipPath><clipPath id="cf891eaf02"><path d="M 187.496094 239.21875 L 144.398438 196.125 L 187.496094 153.027344 L 230.589844 196.125 Z M 187.496094 239.21875 " clip-rule="nonzero"/></clipPath><clipPath id="704c81a0c2"><path d="M 165.949219 217.671875 L 173.78125 196.125 L 165.949219 174.578125 L 187.496094 182.410156 L 209.042969 174.578125 L 201.207031 196.125 L 209.042969 217.671875 L 187.496094 209.835938 L 165.949219 217.671875 " clip-rule="nonzero"/></clipPath></defs><g clip-path="url(#e3ab2038b1)"><g clip-path="url(#44b517faeb)"><g clip-path="url(#03f590a47d)"><path fill="#ce5d42" d="M 43.089844 374.988281 L -0.00390625 331.894531 L 43.089844 288.796875 L 86.1875 331.894531 Z M 43.089844 374.988281 " fill-opacity="1" fill-rule="nonzero"/></g></g></g><g clip-path="url(#32bf97dd31)"><g clip-path="url(#366bd436a6)"><g clip-path="url(#b931579e53)"><path fill="#3a5d59" d="M 43.089844 282.316406 L -0.00390625 239.21875 L 43.089844 196.125 L 86.1875 239.21875 Z M 43.089844 282.316406 " fill-opacity="1" fill-rule="nonzero"/></g></g></g><g clip-path="url(#a57e293eb9)"><g clip-path="url(#23115d15f7)"><g clip-path="url(#40120b6b73)"><path fill="#3a5d59" d="M 129.28125 373.453125 L 86.1875 330.355469 L 129.28125 287.261719 L 172.378906 330.355469 Z M 129.28125 373.453125 " fill-opacity="1" fill-rule="nonzero"/></g></g></g><g clip-path="url(#13f25f2561)"><g clip-path="url(#cf891eaf02)"><g clip-path="url(#704c81a0c2)"><path fill="#ce5d42" d="M 187.496094 239.21875 L 144.398438 196.125 L 187.496094 153.027344 L 230.589844 196.125 Z M 187.496094 239.21875 " fill-opacity="1" fill-rule="nonzero"/></g></g></g></svg>