<svg id="visual" viewBox="0 0 960 540" width="960" height="540" xmlns="http://www.w3.org/2000/svg" xmlns:xlink="http://www.w3.org/1999/xlink" version="1.1"><g transform="translate(0 540)"><path d="M257.9 -446.8C335.9 -401.8 401.8 -335.9 446.8 -257.9C491.8 -180 515.9 -90 515.9 0C515.9 90 491.8 180 446.8 257.9C401.8 335.9 335.9 401.8 257.9 446.8C180 491.8 90 515.9 0 515.9C-90 515.9 -180 491.8 -257.9 446.8C-335.9 401.8 -401.8 335.9 -446.8 257.9C-491.8 180 -515.9 90 -515.9 0C-515.9 -90 -491.8 -180 -446.8 -257.9C-401.8 -335.9 -335.9 -401.8 -257.9 -446.8C-180 -491.8 -90 -515.9 0 -515.9C90 -515.9 180 -491.8 257.9 -446.8" fill="#4f6967"></path></g></svg>