<svg id="visual" viewBox="0 0 960 540" width="960" height="540" xmlns="http://www.w3.org/2000/svg" xmlns:xlink="http://www.w3.org/1999/xlink" version="1.1"><g transform="translate(-5.684341886080802e-14 -2.842170943040401e-14)"><path d="M225.5 -390.5C293.6 -351.2 351.2 -293.6 390.5 -225.5C429.8 -157.3 450.9 -78.7 450.9 0C450.9 78.7 429.8 157.3 390.5 225.5C351.2 293.6 293.6 351.2 225.5 390.5C157.3 429.8 78.7 450.9 0 451C-78.8 451.1 -157.5 430.1 -225.6 390.8C-293.8 351.5 -351.3 293.7 -390.6 225.5C-429.8 157.3 -450.9 78.7 -450.9 0C-450.9 -78.7 -429.8 -157.3 -390.6 -225.5C-351.3 -293.7 -293.8 -351.5 -225.6 -390.8C-157.5 -430.1 -78.8 -451.1 0 -451C78.7 -450.9 157.3 -429.8 225.5 -390.5" fill="#f98c6d"></path></g></svg>