<svg width="0" height="0" class="hidden">
  <symbol xmlns="http://www.w3.org/2000/svg" xmlns:xlink="http://www.w3.org/1999/xlink" zoomAndPan="magnify" preserveAspectRatio="xMidYMid meet" version="1.0" viewBox="0 0 150 149.999998" id="hero-arrow-star">
    <defs>
      <clipPath id="af44d1bfe2">
        <path d="M 17.59375 70.445312 L 77.59375 70.445312 L 77.59375 88.445312 L 17.59375 88.445312 Z M 17.59375 70.445312 " clip-rule="nonzero"></path>
      </clipPath>
      <clipPath id="d0fe3c6bd6">
        <path d="M 64 70.445312 L 77.59375 70.445312 L 77.59375 85 L 64 85 Z M 64 70.445312 " clip-rule="nonzero"></path>
      </clipPath>
    </defs>
    <path fill="#f86e49" d="M 74.660156 45.136719 L 78.390625 60.875 L 89.488281 49.109375 L 84.851562 64.605469 L 100.347656 59.964844 L 88.582031 71.066406 L 104.320312 74.796875 L 88.582031 78.527344 L 100.347656 89.625 L 84.851562 84.988281 L 89.488281 100.484375 L 78.390625 88.71875 L 74.660156 104.457031 L 70.929688 88.71875 L 59.828125 100.484375 L 64.46875 84.988281 L 48.972656 89.625 L 60.738281 78.527344 L 45 74.796875 L 60.738281 71.066406 L 48.972656 59.964844 L 64.46875 64.605469 L 59.828125 49.109375 L 70.929688 60.875 Z M 74.660156 45.136719 " fill-opacity="1" fill-rule="nonzero"></path>
    <path fill="#f86e49" d="M 74.660156 45.136719 L 78.390625 60.875 L 89.488281 49.109375 L 84.851562 64.605469 L 100.347656 59.964844 L 88.582031 71.066406 L 104.320312 74.796875 L 88.582031 78.527344 L 100.347656 89.625 L 84.851562 84.988281 L 89.488281 100.484375 L 78.390625 88.71875 L 74.660156 104.457031 L 70.929688 88.71875 L 59.828125 100.484375 L 64.46875 84.988281 L 48.972656 89.625 L 60.738281 78.527344 L 45 74.796875 L 60.738281 71.066406 L 48.972656 59.964844 L 64.46875 64.605469 L 59.828125 49.109375 L 70.929688 60.875 Z M 74.660156 45.136719 " fill-opacity="0.2" fill-rule="nonzero"></path>
    <g clip-path="url(#af44d1bfe2)">
      <path stroke-linecap="round" transform="matrix(0.545455, 0, 0, 0.545455, 17.592594, 70.444443)" fill="none" stroke-linejoin="miter" d="M 0.732588 32.041961 C 28.118006 20.862924 58.317877 14.417611 87.701342 11.2236 C 93.688321 10.579069 99.782723 10.135059 105.683764 8.824512 C 106.564624 8.631152 107.667488 8.452116 108.254728 7.714486 " stroke="#ebebeb" stroke-width="2" stroke-opacity="1" stroke-miterlimit="4"></path>
    </g>
    <g clip-path="url(#d0fe3c6bd6)">
      <path stroke-linecap="round" transform="matrix(0.545455, 0, 0, 0.545455, 17.592594, 70.444443)" fill="none" stroke-linejoin="miter" d="M 105.297046 7.556934 C 103.248868 6.4111 98.071134 4.728157 97.397957 2.013965 C 97.376472 1.928027 97.312019 1.319303 97.340665 1.376595 C 98.171394 3.202767 97.598478 7.320605 97.419441 9.325814 C 97.376472 9.8486 96.395353 15.384408 96.860847 15.14808 C 101.236499 12.963835 105.361499 8.831673 109.44353 6.053027 " stroke="#ebebeb" stroke-width="2" stroke-opacity="1" stroke-miterlimit="4"></path>
    </g>
  </symbol>
</svg>