<?xml version="1.0" encoding="UTF-8" standalone="no"?>
<svg
   xmlns:dc="http://purl.org/dc/elements/1.1/"
   xmlns:cc="http://creativecommons.org/ns#"
   xmlns:rdf="http://www.w3.org/1999/02/22-rdf-syntax-ns#"
   xmlns:svg="http://www.w3.org/2000/svg"
   xmlns="http://www.w3.org/2000/svg"
   xmlns:sodipodi="http://sodipodi.sourceforge.net/DTD/sodipodi-0.dtd"
   xmlns:inkscape="http://www.inkscape.org/namespaces/inkscape"
   height="311.14731"
   width="1000"
   version="1.1"
   viewBox="0 0 1000 311.14731"
   id="svg2"
   inkscape:version="0.48.5 r10040"
   sodipodi:docname="Spotify_logo_with_text.svg">
  <metadata
     id="metadata10">
    <rdf:RDF>
      <cc:Work
         rdf:about="">
        <dc:format>image/svg+xml</dc:format>
        <dc:type
           rdf:resource="http://purl.org/dc/dcmitype/StillImage" />
      </cc:Work>
    </rdf:RDF>
  </metadata>
  <defs
     id="defs8" />
  <sodipodi:namedview
     pagecolor="#ffffff"
     bordercolor="#666666"
     borderopacity="1"
     objecttolerance="10"
     gridtolerance="10"
     guidetolerance="10"
     inkscape:pageopacity="0"
     inkscape:pageshadow="2"
     inkscape:window-width="1009"
     inkscape:window-height="1016"
     id="namedview6"
     showgrid="false"
     fit-margin-top="0"
     fit-margin-left="0"
     fit-margin-right="0"
     fit-margin-bottom="0"
     inkscape:zoom="0.31970117"
     inkscape:cx="968.91126"
     inkscape:cy="-499.36456"
     inkscape:window-x="901"
     inkscape:window-y="-1"
     inkscape:window-maximized="0"
     inkscape:current-layer="svg2" />
  <path
     d="M 155.57644,0 C 69.655768,0 0,69.653906 0,155.57458 0,241.49896 69.655768,311.1473 155.57644,311.1473 c 85.92996,0 155.5783,-69.64834 155.5783,-155.57272 0,-85.915101 -69.64834,-155.56715 -155.58016,-155.56715 z m 71.34635,224.38319 c -2.78668,4.57015 -8.76874,6.01923 -13.33889,3.21397 -36.52776,-22.31199 -82.51164,-27.36516 -136.666053,-14.99232 -5.218516,1.18898 -10.420312,-2.08072 -11.609294,-7.30109 -1.194556,-5.22038 2.06214,-10.42217 7.293661,-11.61115 59.263326,-13.53954 110.097876,-7.70981 151.106606,17.3517 4.57015,2.80526 6.01923,8.76875 3.21397,13.33889 z m 19.04229,-42.3612 c -3.51121,5.70712 -10.9795,7.50917 -16.6829,3.99796 -41.81873,-25.70431 -105.56489,-33.14845 -155.028395,-18.13384 -6.41493,1.93767 -13.19027,-1.67758 -15.137228,-8.08136 -1.932095,-6.41493 1.685011,-13.17726 8.088794,-15.12794 56.500799,-17.14363 126.741769,-8.83933 174.765489,20.67157 5.7034,3.51121 7.50545,10.97951 3.99424,16.67547 z m 1.63485,-44.11123 C 197.45833,108.12862 114.73119,105.39025 66.857945,119.91998 59.170433,122.2515 51.040769,117.91171 48.711107,110.2242 46.381445,102.53297 50.717514,94.408883 58.410599,92.07179 113.36572,75.388886 204.72227,78.612142 262.45106,112.88269 c 6.92954,4.10385 9.19603,13.03422 5.09033,19.9396 -4.08713,6.91467 -13.04165,9.19418 -19.93403,5.08847 z m 175.67209,5.70712 c -26.86356,-6.40564 -31.63806,-10.90148 -31.63806,-20.34832 0,-8.92479 8.39718,-14.93101 20.90007,-14.93101 12.11275,0 24.11404,4.56086 36.70982,13.9501 0.37156,0.28424 0.85458,0.39757 1.31903,0.32326 0.48302,-0.0706 0.89173,-0.32883 1.1704,-0.71711 l 13.11596,-18.48867 c 0.53876,-0.76169 0.39013,-1.81134 -0.3344,-2.39282 -14.99232,-12.025442 -31.861,-17.871889 -51.59068,-17.871889 -29.00001,0 -49.26844,17.405579 -49.26844,42.309179 0,26.70565 17.48175,36.16178 47.68933,43.46101 25.69316,5.92076 30.04037,10.88104 30.04037,19.74639 0,9.82768 -8.76874,15.93979 -22.8879,15.93979 -15.6797,0 -28.47984,-5.29468 -42.78478,-17.66753 -0.35298,-0.31582 -0.836,-0.44587 -1.28187,-0.42729 -0.48302,0.0372 -0.91031,0.26009 -1.20756,0.61307 l -14.71365,17.50033 c -0.61307,0.74311 -0.53876,1.82063 0.1672,2.45227 16.64575,14.86228 37.11853,22.70213 59.22617,22.70213 31.24793,0 51.44205,-17.07304 51.44205,-43.50931 0.0557,-22.30642 -13.30174,-34.66068 -46.01732,-42.61943 z m 116.78033,-26.49201 c -13.54325,0 -24.6528,5.33556 -33.83025,16.26862 l 0,-12.30597 c 0,-0.97162 -0.78027,-1.76303 -1.74632,-1.76303 l -24.05831,0 c -0.96605,0 -1.74632,0.79141 -1.74632,1.76303 l 0,136.73479 c 0,0.96605 0.78027,1.7649 1.74632,1.7649 l 24.05831,0 c 0.96605,0 1.74632,-0.79885 1.74632,-1.7649 l 0,-43.15633 c 9.17745,10.27355 20.287,15.30815 33.83025,15.30815 25.17298,0 50.66178,-19.3767 50.66178,-56.41906 0.0372,-37.04979 -25.45164,-56.43206 -50.6432,-56.43206 z m 22.68355,56.4302 c 0,18.85466 -11.61115,32.02635 -28.2569,32.02635 -16.44139,0 -28.85139,-13.76619 -28.85139,-32.02635 0,-18.26202 12.41,-32.02449 28.85139,-32.02449 16.36708,-0.002 28.2569,13.46337 28.2569,32.02263 z m 93.27935,-56.4302 c -32.41833,0 -57.81425,24.96119 -57.81425,56.83334 0,31.53032 25.22872,56.22027 57.42412,56.22027 32.5298,0 58.00003,-24.87573 58.00003,-56.62341 0,-31.63992 -25.30303,-56.42648 -57.6099,-56.42648 z m 0,88.64233 c -17.24024,0 -30.24473,-13.85908 -30.24473,-32.22142 0,-18.44594 12.55863,-31.83127 29.8546,-31.83127 17.35171,0 30.43051,13.85349 30.43051,32.23441 0,18.44223 -12.63294,31.81828 -30.04038,31.81828 z m 126.83094,-86.44271 -26.47342,0 0,-27.06049 c 0,-0.969764 -0.78027,-1.76118 -1.74632,-1.76118 l -24.05831,0 c -0.96605,0 -1.76489,0.791416 -1.76489,1.76118 l 0,27.06049 -11.55542,0 c -0.96605,0 -1.74632,0.79141 -1.74632,1.76303 l 0,20.67157 c 0,0.96977 0.78027,1.76304 1.74632,1.76304 l 11.55542,0 0,53.4949 c 0,21.60603 10.75657,32.56696 31.99104,32.56696 8.62012,0 15.77259,-1.78347 22.51635,-5.61051 0.55734,-0.29724 0.89174,-0.89173 0.89174,-1.52338 l 0,-19.69252 c 0,-0.59449 -0.31583,-1.1704 -0.83601,-1.48622 -0.52018,-0.3344 -1.1704,-0.35298 -1.70916,-0.0743 -4.62588,2.32223 -9.10314,3.39974 -14.11916,3.39974 -7.7098,0 -11.16528,-3.51121 -11.16528,-11.35106 l 0,-49.71431 26.47342,0 c 0.96605,0 1.74632,-0.79142 1.74632,-1.76304 l 0,-20.66971 c 0.0372,-0.97162 -0.74311,-1.76303 -1.72774,-1.76303 z m 92.22042,0.10589 0,-3.32358 c 0,-9.77751 3.75273,-14.13773 12.14991,-14.13773 5.01602,0 9.04741,0.99577 13.56183,2.50057 0.55733,0.17463 1.13325,0.0873 1.57911,-0.24522 0.46445,-0.33255 0.72454,-0.86573 0.72454,-1.4305 l 0,-20.268426 c 0,-0.774696 -0.48302,-1.460218 -1.24471,-1.688726 -4.75593,-1.417489 -10.84947,-2.872135 -19.98976,-2.872135 -22.20053,0 -33.9603,12.510321 -33.9603,36.165487 l 0,5.09033 -11.55542,0 c -0.96605,0 -1.7649,0.79142 -1.7649,1.76118 l 0,20.77746 c 0,0.96977 0.79885,1.76304 1.7649,1.76304 l 11.55542,0 0,82.49491 c 0,0.98463 0.79884,1.7649 1.76489,1.7649 l 24.03973,0 c 0.98463,0 1.7649,-0.78027 1.7649,-1.7649 l 0,-82.48934 22.46061,0 34.40617,82.48934 c -3.90135,8.65728 -7.74696,10.38502 -12.98592,10.38502 -4.23574,0 -8.713,-1.26329 -13.26458,-3.7713 -0.42729,-0.22294 -0.94747,-0.26009 -1.39333,-0.13005 -0.46445,0.1672 -0.85459,0.5016 -1.04036,0.94747 l -8.15568,17.89047 c -0.39013,0.85458 -0.0557,1.8392 0.76169,2.28507 8.50866,4.60731 16.18131,6.57656 25.67458,6.57656 17.76042,0 27.5881,-8.28572 36.2268,-30.54198 L 999.8726,121.83907 c 0.2229,-0.54247 0.1486,-1.15554 -0.18581,-1.63671 -0.31582,-0.47745 -0.85458,-0.76541 -1.43049,-0.76541 l -25.04294,0 c -0.76169,0 -1.43049,0.47745 -1.672,1.18155 l -25.65601,73.25987 -28.0897,-73.30817 c -0.26009,-0.6818 -0.91031,-1.13325 -1.63485,-1.13325 l -41.09419,0 z m -53.46703,-0.10589 -24.05831,0 c -0.96605,0 -1.7649,0.79141 -1.7649,1.76303 l 0,104.92952 c 0,0.98463 0.79885,1.7649 1.7649,1.7649 l 24.05831,0 c 0.96604,0 1.76489,-0.78027 1.76489,-1.7649 l 0,-104.92208 c 0,-0.97163 -0.78027,-1.76304 -1.76489,-1.76304 z M 809.70976,71.545131 c -9.53044,0 -17.25882,7.71352 -17.25882,17.242097 0,9.534149 7.72838,17.256962 17.25882,17.256962 9.53043,0 17.24024,-7.722813 17.24024,-17.256962 0,-9.526719 -7.72839,-17.242097 -17.24024,-17.242097 z"
     id="path4"
     inkscape:connector-curvature="0"
     style="fill:#1ed760"
     sodipodi:nodetypes="csssccccccccccccccccccccccccccsscccccsscsscccccscccccsssssssscscccssscsscsssccsssssccsssscsssscsscssccsscssccccssccsscsscsssscsssscccscccccscccsscccscccsssssssccsssss" />
</svg>
